# xmcd
#
# Track frame offsets: 
#        150
#        674
#        16623
#        32975
#        50286
#        69011
#        87893
#        104485
#        123291
#        140231
#        157291
#        175743
#        191695
#        211900
#        227478
#        245579
#        261543
#        279934
#        297483
#        315019
#
# Disc length: 4421 seconds
#
# Revision: 0
# Processed by: cddbd v1.5.2PL0 Copyright (c) Steve Scherf et al.
# Submitted via: ExactAudioCopy v0.99pb4
#
DISCID=14114314
DTITLE=Various Artist - prevue promo 1055A-2
DYEAR=2000
DGENRE=pop
TTITLE0=blank - data
TTITLE1=Jennifer Day - Completely(Movie "Where The Heart Is")
TTITLE2=Enya - Only Time
TTITLE3=Paul Thorn - Ain't Love Strange
TTITLE4=Aimee Mann - Calling It Quits
TTITLE5=Madonna - Don't Tell Me(Radio Edit)
TTITLE6=Madonna - Don't Tell Me(Thunderpuss Radio Edit)
TTITLE7=Pink - You Make Me Sick
TTITLE8=Lugo - Boom
TTITLE9=Oscar De La Hoya - Ven A Mi(Run To Me - Radio Edit)
TTITLE10=Soulsa Republic - Bailando Boogaloo(Ricky G Vibe Mix)
TTITLE11=Azul Azul - La Bomba(Diaz Bros. Remix)
TTITLE12=Don Henley - Everything Is Different Now
TTITLE13=Moby feat.  Gwen Stefani - South Side(Pop Remix)
TTITLE14=Fuel - Hemorrhage (In My Hands)(Pop Mix)
TTITLE15=Fuel - Down
TTITLE16=Peter Gabriel - Tower That Ate People, The( Movie "Red Planet
TTITLE16=")
TTITLE17=Incubus - Drive
TTITLE18=Kid Rock - My Oedipus Complex(Lyrics - "Father's Version")
TTITLE19=Green Day - Warning
EXTD=
EXTT0=
EXTT1=
EXTT2=
EXTT3=
EXTT4=
EXTT5=
EXTT6=
EXTT7=
EXTT8=
EXTT9=
EXTT10=
EXTT11=
EXTT12=
EXTT13=
EXTT14=
EXTT15=
EXTT16=
EXTT17=
EXTT18=
EXTT19=
PLAYORDER=
